<svg width="37" height="23" viewBox="0 0 37 23" fill="none" xmlns="http://www.w3.org/2000/svg">
<path d="M15.1277 14.86C15.1277 19 13.6577 22.48 7.7777 22.48C1.8977 22.48 0.427695 19 0.427695 14.86V13.06H5.2277V14.86C5.2277 16.9 5.7077 18.07 7.4777 18.07C9.2477 18.07 9.7277 16.9 9.7277 14.86V0.549999H15.1277V14.86Z" fill="#EEEEEE"/>
<path d="M35.5254 5.95C35.5254 8.59 33.9654 9.91 32.1954 10.51V10.57C34.4454 10.96 36.3654 12.46 36.3654 15.67C36.3654 20.23 33.4554 22 29.0154 22H18.3054V0.549999H28.7154C33.1854 0.549999 35.5254 2.29 35.5254 5.95ZM23.7054 9.22H27.4254C28.9254 9.22 30.1254 8.86 30.1254 7.09C30.1254 5.32 28.9254 4.96 27.4254 4.96H23.7054V9.22ZM23.7054 12.52V17.59H27.5754C29.8254 17.59 30.9654 17.05 30.9654 15.04C30.9654 13.03 29.8254 12.52 27.5754 12.52H23.7054Z" fill="black"/>
</svg>
